<svg width="210" height="210" viewBox="0 0 210 210" fill="none" xmlns="http://www.w3.org/2000/svg">
<rect width="210" height="210" rx="50" fill="#C00E69"/>
<path d="M180.841 118.73H176.684C176.564 118.73 176.469 118.61 176.516 118.491L178.739 111.657C178.786 111.537 178.691 111.418 178.571 111.418H172.669C172.598 111.418 172.526 111.466 172.502 111.537L170.208 118.586C170.184 118.658 170.112 118.706 170.041 118.706H163.422C163.302 118.706 163.207 118.586 163.254 118.467L165.477 111.633C165.525 111.513 165.429 111.394 165.309 111.394H159.622C159.551 111.394 159.479 111.442 159.455 111.513L153.481 129.889C153.434 130.008 153.529 130.128 153.649 130.128H159.336C159.407 130.128 159.479 130.08 159.503 130.008L161.797 122.935C161.821 122.864 161.892 122.816 161.964 122.816H168.583C168.703 122.816 168.798 122.935 168.75 123.055L166.528 129.889C166.48 130.008 166.576 130.128 166.695 130.128H172.598C172.669 130.128 172.741 130.08 172.765 130.008L175.059 122.935C175.083 122.864 175.154 122.816 175.226 122.816H179.599C179.671 122.816 179.742 122.768 179.766 122.696L180.961 118.993C181.056 118.849 180.961 118.73 180.841 118.73Z" fill="#FBFCFD"/>
<path d="M124.617 111.418H109.037C108.965 111.418 108.894 111.466 108.87 111.538L102.92 129.865C102.872 129.985 102.968 130.104 103.087 130.104H108.774C108.846 130.104 108.918 130.056 108.941 129.985L110.136 126.233C110.16 126.161 110.232 126.114 110.303 126.114H116.922C117.042 126.114 117.137 126.233 117.09 126.353L115.967 129.865C115.919 129.985 116.014 130.104 116.134 130.104H122.036C122.108 130.104 122.179 130.056 122.203 129.985L127.102 114.883C127.699 113.186 126.409 111.418 124.617 111.418ZM118.165 122.792H111.546C111.427 122.792 111.331 122.673 111.379 122.553L113.649 115.576C113.673 115.504 113.744 115.456 113.816 115.456H120.435C120.555 115.456 120.65 115.576 120.602 115.695L118.332 122.673C118.308 122.744 118.237 122.792 118.165 122.792Z" fill="#FBFCFD"/>
<path d="M62.2496 111.561L56.2997 129.889C56.2519 130.008 56.3475 130.128 56.4669 130.128H70.7324C70.8041 130.128 70.8758 130.08 70.8997 130.008L72.0945 126.328C72.1422 126.209 72.0467 126.089 71.9272 126.089H62.9904C62.8709 126.089 62.7753 125.97 62.8231 125.85L63.7311 122.935C63.755 122.864 63.8267 122.816 63.8984 122.816H73.0981C73.1697 122.816 73.2414 122.768 73.2653 122.696L74.4601 118.992C74.5079 118.873 74.4123 118.754 74.2928 118.754H65.3321C65.2126 118.754 65.117 118.634 65.1648 118.515L66.0967 115.623C66.1206 115.552 66.1923 115.504 66.264 115.504H75.4637C75.5354 115.504 75.6071 115.456 75.631 115.384L76.8257 111.704C76.8735 111.585 76.7779 111.465 76.6584 111.465H62.393C62.3452 111.418 62.2735 111.465 62.2496 111.561Z" fill="#FBFCFD"/>
<path d="M45.8561 111.418H30.7543C30.6826 111.418 30.6109 111.466 30.587 111.538L29.3923 115.217C29.3445 115.337 29.4401 115.456 29.5595 115.456H33.6934C33.8129 115.456 33.9085 115.576 33.8607 115.695L29.2489 129.865C29.2011 129.985 29.2967 130.104 29.4162 130.104H42.1523C47.2898 130.104 51.8538 126.783 53.4548 121.908C55.1514 116.723 51.2803 111.418 45.8561 111.418ZM47.5049 120.761C46.788 122.983 44.7091 124.489 42.3674 124.489H36.0352L38.6875 116.317H44.279C46.5969 116.317 48.2217 118.563 47.5049 120.761Z" fill="#FBFCFD"/>
<path d="M97.7329 111.418H82.87C82.7983 111.418 82.7266 111.466 82.7027 111.538L76.7528 129.865C76.705 129.985 76.8006 130.104 76.9201 130.104H82.7027C82.7744 130.104 82.8461 130.056 82.87 129.985L85.1639 122.936C85.1878 122.84 85.2595 122.792 85.3551 122.792H85.8569C85.9286 122.792 86.0003 122.84 86.0481 122.912L89.3217 130.009C89.3456 130.08 89.4173 130.104 89.489 130.104H96.1797C96.323 130.104 96.4186 129.937 96.323 129.817L91.7351 122.792H95.0088C96.7292 122.792 98.2585 121.693 98.7842 120.044L100.409 115.074C100.983 113.282 99.6445 111.418 97.7329 111.418ZM92.9299 118.73H86.7649C86.6454 118.73 86.5499 118.611 86.5977 118.491L87.5296 115.6C87.5535 115.528 87.6252 115.48 87.6968 115.48H93.8618C93.9813 115.48 94.0769 115.6 94.0291 115.719L93.0972 118.611C93.0733 118.682 93.0255 118.73 92.9299 118.73Z" fill="#FBFCFD"/>
<path d="M149.321 111.418H133.765C133.694 111.418 133.622 111.466 133.598 111.538L127.648 129.865C127.601 129.985 127.696 130.104 127.816 130.104H133.503C133.574 130.104 133.646 130.056 133.67 129.985L134.865 126.233C134.889 126.161 134.96 126.114 135.032 126.114H141.651C141.77 126.114 141.866 126.233 141.818 126.353L140.695 129.865C140.647 129.985 140.743 130.104 140.862 130.104H146.765C146.836 130.104 146.908 130.056 146.932 129.985L151.83 114.883C152.404 113.186 151.113 111.418 149.321 111.418ZM142.846 122.792H136.227C136.107 122.792 136.012 122.673 136.059 122.553L138.329 115.576C138.353 115.504 138.425 115.456 138.497 115.456H145.116C145.235 115.456 145.331 115.576 145.283 115.695L143.013 122.673C143.013 122.744 142.941 122.792 142.846 122.792Z" fill="#FBFCFD"/>
<path d="M133.826 91.8951H117.697C117.482 91.8951 117.314 91.7517 117.243 91.5606L115.952 87.5701C115.857 87.2594 116.072 86.9488 116.406 86.9488H131.914C132.225 86.9488 132.464 86.6382 132.368 86.3275L130.839 81.6201C130.767 81.429 130.6 81.2856 130.385 81.2856H110.528C109.166 81.2856 108.186 82.6238 108.616 83.9141L111.006 91.2499C111.102 91.5606 110.887 91.8712 110.552 91.8712H61.1844C60.9693 91.8712 60.802 91.7278 60.7303 91.5367L56.7159 79.2067C56.6442 79.0156 56.477 78.8722 56.2619 78.8722H50.7182C50.4076 78.8722 50.1686 79.1828 50.2642 79.4935L50.6465 80.6643C50.7421 80.975 50.5271 81.2856 50.1925 81.2856H33.2986C32.0799 81.2856 31.2197 82.4804 31.5781 83.6273L34.0632 91.2499C34.1588 91.5606 33.9437 91.8712 33.6092 91.8712H29.4753C29.1647 91.8712 28.9257 92.1819 29.0213 92.4925L30.5745 97.2954C30.6462 97.4866 30.8135 97.63 31.0285 97.63H135.355C135.666 97.63 135.905 97.3193 135.809 97.0087L134.256 92.2058C134.208 92.0146 134.041 91.8951 133.826 91.8951ZM40.3716 91.5606L39.0812 87.5701C38.9856 87.2594 39.2007 86.9488 39.5352 86.9488H52.367C52.5821 86.9488 52.7493 87.0922 52.821 87.2833L54.1114 91.2738C54.2069 91.5845 53.9919 91.8951 53.6573 91.8951H40.8256C40.6105 91.8951 40.4433 91.7517 40.3716 91.5606Z" fill="#FBFCFD"/>
<path d="M137.914 81.2855H142.98C143.195 81.2855 143.362 81.4289 143.434 81.6201L150.292 102.72C150.77 104.177 149.671 105.659 148.141 105.659H135.955C135.74 105.659 135.572 105.515 135.501 105.324L133.948 100.593C133.852 100.282 134.067 99.9716 134.402 99.9716H142.669C142.98 99.9716 143.219 99.661 143.123 99.3503L137.46 81.9068C137.365 81.5962 137.604 81.2855 137.914 81.2855Z" fill="#FBFCFD"/>
<path d="M148.784 81.2855H170.935C171.15 81.2855 171.318 81.4289 171.389 81.6201L174.615 91.5605C174.687 91.7517 174.854 91.895 175.069 91.895H178.869C179.084 91.895 179.251 92.0384 179.323 92.2296L180.876 97.0325C180.971 97.3431 180.756 97.6538 180.422 97.6538H153.779C153.563 97.6538 153.396 97.5104 153.325 97.3193L151.771 92.5163C151.676 92.2057 151.891 91.895 152.225 91.895H167.542C167.853 91.895 168.092 91.5844 167.996 91.2737L166.706 87.2832C166.634 87.0921 166.467 86.9487 166.252 86.9487H150.314C150.099 86.9487 149.931 86.8053 149.86 86.6142L148.33 81.9068C148.235 81.5962 148.45 81.2855 148.784 81.2855Z" fill="#FBFCFD"/>
</svg>
